<svg version="1.0" xmlns="http://www.w3.org/2000/svg"
 width="300.000000pt" height="300.000000pt" viewBox="0 0 300.000000 300.000000"
 preserveAspectRatio="xMidYMid meet">
<g transform="translate(0.000000,300.000000) scale(0.100000,-0.100000)"
fill="#ffffff" stroke="white" stroke-width="20">
<path d="M1437 2791 c-147 -49 -259 -185 -288 -350 -13 -72 -1 -151 31 -214
13 -24 16 -37 8 -35 -7 3 -26 31 -43 64 -16 32 -31 61 -32 63 -2 2 -27 -12
-56 -32 -60 -42 -162 -142 -208 -205 l-31 -43 28 8 c16 4 61 8 99 7 101 0 182
-40 278 -135 l72 -72 55 2 c70 3 152 -26 208 -75 36 -31 42 -33 42 -16 0 25
-61 79 -117 104 -24 11 -75 22 -114 25 -63 5 -73 9 -92 35 -28 39 -130 116
-185 140 -24 11 -73 25 -110 32 l-67 13 67 66 c85 82 104 89 138 51 52 -61 55
-61 105 -11 25 25 45 54 45 65 0 42 43 189 67 232 25 43 99 120 116 120 4 0
-4 -17 -18 -37 -42 -63 -28 -68 33 -12 31 29 82 64 112 78 69 32 169 40 220
18 l35 -15 -65 -1 c-40 -1 -81 -9 -106 -20 -26 -12 -46 -16 -55 -10 -8 5 -21
9 -29 9 -12 -1 -11 -3 3 -11 26 -15 10 -31 -25 -24 -25 6 -36 0 -82 -44 -30
-27 -49 -52 -42 -54 8 -3 6 -13 -4 -33 -12 -22 -22 -28 -42 -26 -54 6 -100
-85 -93 -183 5 -73 26 -116 72 -153 22 -17 52 -49 68 -71 32 -48 102 -97 160
-113 64 -18 66 -23 40 -108 -13 -41 -26 -88 -30 -103 -6 -30 -25 -28 -25 4 0
25 -76 74 -141 89 -28 7 -74 9 -106 6 -57 -6 -58 -6 -84 28 -37 50 -115 112
-179 144 -45 22 -68 27 -130 26 -114 0 -144 -14 -169 -77 -46 -117 -55 -168
-55 -302 0 -130 15 -216 51 -287 13 -27 13 -28 -16 -28 -28 0 -31 4 -51 66
-11 36 -25 105 -32 154 -22 167 22 369 113 523 54 92 169 211 257 267 l71 45
0 52 1 52 -52 -30 c-145 -86 -255 -188 -336 -312 -143 -220 -188 -517 -113
-758 l19 -59 -119 0 -119 0 0 -489 0 -489 42 20 c84 41 299 117 400 142 574
143 1127 100 1676 -130 56 -23 102 -42 102 -40 0 1 -19 79 -43 172 l-43 170
21 34 c18 33 20 50 17 264 -3 252 -8 277 -65 318 -16 12 -51 23 -77 26 l-48 4
14 41 c8 23 22 84 30 137 46 277 -50 570 -256 785 -64 66 -68 73 -73 127 -11
113 -71 200 -186 268 -36 21 -86 44 -111 50 -25 6 -72 24 -105 41 -80 39 -168
47 -248 20z m183 -41 c0 -5 -24 -10 -52 -11 -29 0 -62 -4 -73 -8 -22 -9 -45
-4 -45 9 0 13 28 18 103 19 39 1 67 -3 67 -9z m-171 -24 c15 -18 -6 -27 -33
-14 -15 8 -16 12 -5 19 19 12 25 11 38 -5z m143 -7 c-85 -11 -157 -46 -216
-105 -58 -57 -107 -156 -114 -225 -2 -27 -8 -49 -13 -49 -11 0 -11 4 2 76 32
176 183 316 339 313 l65 -2 -63 -8z m-222 -22 c0 -7 -14 -26 -30 -42 -17 -16
-45 -51 -61 -77 -17 -27 -34 -48 -38 -48 -34 0 -1 67 65 133 49 49 64 56 64
34z m536 -82 c53 -31 92 -78 116 -140 24 -61 16 -71 -10 -12 -30 68 -136 137
-210 137 -140 0 -287 -145 -324 -320 -24 -117 18 -213 118 -271 51 -29 67 -34
124 -33 42 1 58 -1 45 -7 -42 -16 -153 -10 -200 12 -150 71 -197 279 -104 461
45 88 153 173 254 199 52 14 145 1 191 -26z m-66 -34 c22 -6 20 -8 -19 -14
-24 -4 -56 -14 -72 -23 -22 -11 -34 -12 -50 -3 -26 14 -24 15 42 33 61 17 64
17 99 7z m89 -51 c132 -67 123 -292 -16 -441 -122 -130 -291 -132 -353 -3 -31
63 -25 173 14 260 70 155 240 243 355 184z m-245 -3 c17 -12 17 -14 2 -20 -28
-11 -57 8 -39 26 9 10 17 9 37 -6z m-445 -72 c-12 -40 -11 -148 1 -179 14 -38
-3 -40 -26 -3 -35 59 -18 260 20 225 9 -9 11 -21 5 -43z m169 -60 c4 0 5 -9 3
-20 -7 -44 -5 -221 3 -239 9 -19 9 -19 -23 0 -60 35 -77 164 -35 263 15 35 16
35 30 16 8 -11 18 -20 22 -20z m122 -90 c4 3 3 -14 -2 -38 -5 -23 -7 -67 -5
-97 l6 -55 -21 25 c-17 21 -20 35 -16 91 5 66 17 106 26 81 2 -7 7 -10 12 -7z
m580 -30 c19 -19 29 -35 23 -35 -6 0 -16 6 -22 14 -7 8 -21 12 -31 9 -16 -4
-20 0 -20 21 0 35 9 33 50 -9z m25 -96 c110 -131 175 -279 197 -453 14 -108 2
-228 -32 -340 -19 -59 -24 -66 -47 -66 -19 0 -24 4 -20 18 3 9 15 49 28 87 29
95 32 296 5 400 -33 126 -97 245 -173 326 -28 29 -33 41 -27 63 3 14 9 26 13
25 3 0 29 -27 56 -60z m-15 -126 c120 -179 160 -412 103 -608 -9 -33 -17 -81
-18 -107 0 -34 -4 -48 -13 -48 -8 0 -29 -7 -48 -16 -24 -11 -38 -13 -47 -6 -6
6 -29 13 -50 17 l-38 7 17 26 c23 35 32 208 13 272 -7 27 -11 88 -10 150 2 88
-2 119 -24 195 -14 50 -30 94 -36 100 -16 16 -10 43 22 90 l31 46 25 -23 c14
-13 46 -55 73 -95z m-166 -82 c40 -126 50 -200 37 -278 -6 -37 -13 -106 -15
-153 -1 -47 -8 -96 -15 -108 -6 -12 -8 -22 -3 -22 18 0 32 53 32 118 0 37 5
74 10 82 11 17 14 -237 4 -265 -7 -18 -84 -60 -84 -45 0 5 14 16 30 25 17 9
30 17 30 19 0 3 3 13 7 23 5 16 3 15 -18 -3 -34 -30 -116 -64 -155 -64 -18 0
-45 5 -61 12 -15 6 -107 14 -203 18 -199 8 -244 18 -303 70 -36 33 -40 39 -28
54 15 18 71 36 121 37 34 0 34 1 -16 18 -53 18 -97 45 -128 80 -26 29 -42 26
-22 -4 19 -29 8 -32 -33 -10 -48 25 -52 81 -5 72 16 -3 24 0 24 9 0 15 70 54
97 54 10 0 25 5 33 11 11 7 1 8 -35 4 -27 -4 -58 -9 -67 -12 -10 -2 -18 0 -18
6 0 17 112 44 190 45 63 1 83 -4 127 -27 46 -24 73 -51 73 -72 0 -4 -16 3 -36
14 -52 31 -52 20 1 -17 25 -17 53 -47 62 -66 15 -32 15 -37 0 -60 -17 -26 -68
-45 -122 -47 -26 0 -27 -2 -10 -9 11 -5 59 -9 107 -9 84 -1 88 -2 130 -36 54
-44 102 -66 153 -71 l40 -4 -30 14 c-68 32 -97 85 -119 219 -10 54 8 45 23
-12 14 -55 64 -141 82 -141 8 0 6 6 -4 18 -8 9 -18 29 -22 44 -9 35 12 135 38
177 l20 33 -21 -11 c-12 -7 -22 -16 -22 -21 0 -6 -4 -10 -10 -10 -18 0 -11 55
15 124 16 42 25 86 24 119 l-1 52 -12 -53 c-19 -75 -26 -75 -26 -1 l0 64 48
37 c26 20 50 37 54 37 4 1 18 -35 32 -78z m-926 -26 c65 -28 112 -86 112 -139
0 -32 -42 -56 -102 -57 -36 0 -39 -2 -20 -9 39 -16 25 -53 -32 -82 -46 -24
-214 -59 -222 -47 -13 21 28 248 53 291 2 5 18 1 34 -8 17 -8 36 -13 42 -11 7
3 -5 12 -25 21 -40 17 -50 41 -20 49 41 11 145 6 180 -8z m682 -105 c0 -67 -4
-110 -10 -110 -5 0 -10 17 -11 38 l-1 37 -13 -50 c-15 -63 -43 -130 -51 -122
-5 5 8 58 47 183 10 33 19 74 19 91 0 26 6 43 17 43 2 0 3 -49 3 -110z m78 35
c11 -48 11 -62 -4 -110 -15 -47 -16 -61 -5 -90 15 -43 8 -59 -20 -42 -32 19
-51 -14 -48 -88 3 -64 1 -65 -48 -46 -31 12 -33 16 -33 61 0 32 5 52 16 61 18
15 59 73 86 123 13 22 18 53 18 109 0 94 19 105 38 22z m-581 -37 c30 -28 29
-44 -5 -62 l-29 -15 1 49 c1 28 3 50 5 50 3 0 15 -10 28 -22z m-67 -120 c0 -7
-16 -26 -35 -41 -45 -36 -46 -69 -3 -114 22 -23 41 -33 62 -33 52 0 62 -13 36
-48 -30 -40 -22 -69 35 -121 24 -22 39 -41 32 -41 -7 0 -45 16 -85 35 -96 47
-123 52 -145 27 -18 -19 -17 -21 13 -56 l32 -36 -73 0 c-41 0 -85 -3 -99 -7
-24 -6 -24 -5 -9 13 9 10 22 29 28 42 25 48 -33 70 -82 32 -33 -26 -44 -25
-51 6 -8 32 -6 35 62 58 42 15 68 17 127 11 48 -4 75 -3 75 3 0 14 -87 42
-131 42 -38 0 -103 -23 -114 -40 -8 -12 -25 -13 -25 -1 0 5 15 18 33 30 34 22
26 28 -17 11 -22 -8 -26 -7 -26 9 0 21 35 31 112 31 36 0 68 -9 119 -34 38
-19 69 -32 69 -29 0 30 -64 77 -133 98 l-42 12 67 31 c47 21 73 40 90 66 29
44 78 72 78 44z m21 -393 c138 -66 208 -85 312 -85 49 0 76 -4 72 -10 -8 -13
-137 -13 -206 0 -56 10 -299 125 -299 141 0 13 -3 14 121 -46z m-241 40 c0 -8
-64 -64 -72 -65 -20 0 -4 30 25 48 33 21 47 26 47 17z m1440 -67 c0 -5 -13 -8
-30 -8 -35 0 -36 2 -13 36 l16 26 13 -24 c7 -12 13 -26 14 -30z m-1660 0 c0
-4 -13 -8 -30 -8 -33 0 -35 2 -19 31 10 20 11 20 30 3 10 -9 19 -21 19 -26z
m135 -13 c28 -23 29 -25 12 -42 -16 -17 -18 -16 -43 9 -17 16 -24 32 -21 42 8
21 16 20 52 -9z m803 -11 c29 -19 27 -34 -9 -62 -24 -20 -32 -22 -44 -12 -8 7
-15 17 -15 23 0 20 -33 47 -59 48 -14 0 -35 4 -45 8 -11 4 16 8 65 9 58 0 91
-4 107 -14z m222 2 c-16 -16 -122 -18 -170 -3 -44 14 -44 14 67 13 69 -1 108
-5 103 -10z m-1106 -36 c14 -5 32 -21 42 -35 15 -22 16 -47 9 -220 -9 -233 -9
-233 -131 -261 l-74 -16 0 -98 0 -98 -62 -23 c-35 -13 -64 -22 -66 -21 -2 1
-4 707 -2 777 0 9 258 5 284 -5z m395 -1 c17 -6 36 -19 41 -29 16 -30 13 -474
-3 -513 -18 -42 -40 -52 -170 -76 -113 -21 -148 -18 -161 14 -10 27 -7 531 4
560 5 14 24 32 42 40 40 17 201 20 247 4z m946 -58 l12 -63 -74 4 -73 3 0 -72
0 -73 55 0 55 0 0 -44 c0 -24 3 -52 7 -62 6 -15 1 -16 -53 -10 l-59 6 0 -64 0
-65 69 -12 68 -13 -6 -55 c-4 -30 -9 -57 -11 -59 -3 -3 -42 2 -87 11 -46 9
-101 19 -124 22 l-41 6 -6 202 c-4 111 -7 239 -7 283 l0 81 53 21 c38 15 73
20 132 19 l79 -2 11 -64z m340 54 c21 -8 39 -25 45 -40 13 -35 13 -421 0 -446
-6 -10 -20 -19 -31 -19 -17 0 -19 -4 -13 -22 13 -42 63 -242 60 -245 -1 -1
-32 10 -68 25 l-67 27 -21 85 c-36 146 -41 160 -49 160 -5 0 -6 -49 -3 -110 3
-62 1 -110 -4 -110 -5 0 -36 9 -69 19 l-60 19 -5 328 c-3 181 -4 332 -2 337 6
14 250 8 287 -8z m-1139 -44 c16 -5 41 -12 56 -15 29 -6 32 -21 48 -186 8 -90
14 -78 31 57 6 56 15 106 18 111 3 5 32 12 63 15 67 8 61 17 79 -128 7 -55 15
-106 19 -113 3 -7 12 48 19 122 15 151 11 146 104 146 31 0 47 -4 47 -12 0
-14 -77 -469 -85 -505 -5 -21 -11 -23 -68 -23 l-63 0 -22 124 c-12 68 -22 135
-22 150 0 46 -17 19 -23 -36 -3 -29 -13 -95 -22 -145 l-17 -93 -63 0 -63 0
-12 68 c-30 168 -80 463 -80 467 0 8 24 6 56 -4z m812 -144 c6 -49 -3 -59 -35
-42 -15 8 -36 15 -45 15 -13 0 -18 8 -18 31 0 30 1 30 48 27 43 -3 47 -5 50
-31z m-837 -273 c10 -53 26 -107 34 -121 18 -28 17 -29 -67 -37 -62 -7 -67 -3
-42 25 27 30 43 91 44 168 0 41 3 71 6 68 4 -4 15 -50 25 -103z m518 -41 c1
-50 6 -95 11 -98 6 -3 10 -11 10 -17 0 -10 -87 -5 -97 6 -3 2 2 17 10 33 8 15
17 47 21 71 3 23 12 66 18 95 10 45 12 49 19 27 4 -14 7 -66 8 -117z m321 66
l0 -42 -42 7 c-24 4 -47 11 -52 16 -15 15 2 40 26 40 13 0 30 5 38 10 25 16
30 12 30 -31z m-1300 -112 c0 -41 18 -80 49 -103 16 -12 7 -34 -14 -34 -8 0
-57 -13 -108 -30 -104 -33 -122 -36 -110 -17 4 6 10 48 13 92 l5 80 46 11 c25
7 59 19 75 27 42 23 44 22 44 -26z m722 -27 l17 -30 -34 0 c-39 0 -39 0 -23
35 14 32 19 31 40 -5z m1008 -225 c0 -27 -6 -30 -29 -16 -12 8 -12 12 -2 25
19 23 31 20 31 -9z"/>
<path d="M1742 2409 c-115 -57 -138 -229 -39 -289 18 -11 46 -20 62 -19 l30 1
-35 10 c-128 36 -124 216 6 279 40 19 50 20 85 10 21 -7 46 -23 55 -36 9 -14
21 -25 26 -25 17 0 -33 60 -62 75 -40 21 -77 19 -128 -6z"/>
<path d="M1763 2322 c-30 -22 -45 -76 -32 -106 12 -27 108 -86 139 -86 34 0
80 53 80 92 0 43 -5 49 -66 87 -58 35 -89 38 -121 13z m79 -8 c27 -14 29 -18
15 -26 -11 -6 -25 -4 -42 8 -14 9 -28 14 -32 11 -3 -4 6 -12 21 -18 26 -12 35
-29 16 -29 -14 0 -60 30 -60 40 0 5 33 26 48 29 2 1 17 -6 34 -15z m69 -44
c26 -15 26 -73 -1 -100 -22 -22 -60 -26 -78 -8 -22 22 -14 75 14 97 30 24 38
25 65 11z m-145 -35 c4 -8 10 -12 15 -9 10 6 23 -20 17 -36 -5 -15 -58 27 -58
46 0 19 19 18 26 -1z"/>
<path d="M623 1113 c-23 -4 -23 -7 -23 -143 l0 -139 33 6 c17 3 33 6 34 7 1 1
3 62 4 136 1 144 2 143 -48 133z"/>
<path d="M988 933 c-2 -109 -3 -199 -2 -200 0 -1 17 0 37 4 l37 6 0 193 0 194
-35 0 -34 0 -3 -197z"/>
<path d="M2280 1001 c0 -115 1 -119 23 -125 55 -15 55 -16 49 112 -5 121 -9
132 -49 132 -23 0 -23 -2 -23 -119z"/>
<path d="M1405 481 c-11 -10 -4 -31 10 -31 12 0 15 -16 15 -85 0 -50 -4 -85
-10 -85 -5 0 -10 -8 -10 -18 0 -15 8 -18 35 -18 26 1 35 5 35 18 0 9 -5 18
-11 20 -6 2 -9 31 -7 73 l3 70 36 -90 c45 -111 64 -120 73 -34 3 34 6 82 6
105 0 32 4 44 15 44 28 0 15 27 -16 34 -46 9 -49 8 -49 -14 0 -11 5 -20 10
-20 6 0 10 -26 10 -57 0 -67 -7 -62 -45 28 -26 65 -28 67 -61 66 -19 -1 -37
-3 -39 -6z"/>
<path d="M1238 473 c-24 -6 -26 -93 -3 -93 10 0 15 10 15 30 0 50 26 37 34
-16 9 -69 7 -124 -4 -124 -5 0 -10 -7 -10 -15 0 -11 12 -15 45 -15 38 0 45 3
45 20 0 11 -7 20 -15 20 -12 0 -15 15 -17 65 -1 36 -2 73 -2 83 -2 29 29 20
32 -10 2 -17 9 -28 19 -28 11 0 14 6 9 23 -3 12 -6 32 -6 45 0 21 -4 22 -62
21 -35 -1 -71 -3 -80 -6z"/>
<path d="M1620 469 c0 -7 6 -17 13 -23 19 -16 11 -166 -9 -166 -8 0 -14 -9
-14 -19 0 -17 9 -20 73 -23 39 -2 73 -3 74 -3 0 0 4 17 8 38 6 30 4 37 -9 37
-9 0 -16 -8 -16 -20 0 -16 -7 -20 -30 -20 -28 0 -30 2 -30 40 0 38 1 40 25 34
21 -5 25 -3 25 15 0 16 -6 21 -26 21 -20 0 -25 4 -20 16 3 9 6 22 6 30 0 9 11
14 30 14 23 0 30 -4 30 -20 0 -35 28 -23 32 14 3 31 1 35 -25 40 -51 10 -137
7 -137 -5z"/>
<path d="M1133 463 c-25 -3 -33 -9 -33 -24 0 -10 6 -19 14 -19 15 0 21 -19 31
-107 6 -45 4 -53 -9 -53 -17 0 -20 -8 -8 -27 5 -8 22 -10 50 -6 32 4 42 10 42
24 0 11 -6 19 -14 19 -10 0 -16 17 -21 53 -3 28 -8 64 -11 80 -4 20 -2 27 10
27 9 0 16 8 16 20 0 20 -2 21 -67 13z"/>
<path d="M1828 453 c-34 -38 -32 -68 7 -112 39 -43 43 -76 10 -76 -13 0 -21 8
-23 23 -6 41 -32 26 -32 -19 0 -34 3 -40 17 -35 9 4 20 1 24 -5 13 -22 56 -1
68 32 16 47 14 55 -25 99 -22 24 -34 46 -30 55 8 21 23 19 38 -5 20 -31 38
-24 38 14 0 29 -3 34 -22 33 -13 0 -30 3 -39 7 -9 4 -22 0 -31 -11z"/>
<path d="M973 437 c-41 -8 -53 -14 -53 -28 0 -12 7 -19 18 -19 25 0 56 -147
34 -159 -8 -5 -12 -15 -9 -24 5 -12 13 -13 44 -7 21 5 40 9 43 9 16 0 8 29
-10 34 -25 6 -30 67 -5 67 8 0 15 9 15 21 0 15 -5 20 -22 17 -19 -2 -24 2 -26
30 -3 30 -1 32 27 32 21 0 31 -5 31 -15 0 -8 7 -15 15 -15 15 0 20 26 9 54 -7
18 -32 19 -111 3z"/>
<path d="M1960 421 c-18 -35 -11 -75 21 -110 33 -38 35 -66 4 -66 -13 0 -21 8
-23 23 -4 26 -32 30 -32 5 0 -10 -3 -29 -7 -41 -5 -19 -2 -23 13 -21 10 2 25
0 32 -5 27 -16 61 3 71 40 12 43 7 60 -32 101 -19 20 -27 38 -23 48 8 21 28
15 41 -13 10 -24 35 -30 35 -9 0 6 3 23 7 36 5 21 3 23 -15 19 -12 -4 -25 -2
-28 3 -10 16 -53 9 -64 -10z"/>
<path d="M731 305 c-116 -42 -246 -103 -238 -112 4 -3 12 -1 19 4 21 17 155
60 251 81 98 22 102 24 94 47 -9 21 -18 19 -126 -20z"/>
<path d="M2147 333 c-15 -15 -5 -33 21 -39 128 -29 229 -57 277 -79 92 -40 77
-20 -16 24 -77 36 -250 101 -268 101 -4 0 -11 -3 -14 -7z"/>
</g>
</svg>
